<?xml version="1.0" encoding="UTF-8"?>
<svg id="b" data-name="Layer 2" xmlns="http://www.w3.org/2000/svg" width="407.618" height="710.152" viewBox="0 0 407.618 710.152">
  <g id="c" data-name="Arte">
    <g id="d" data-name="Isotipo Simple - Luxury Olive_1096">
      <g>
        <path d="M373.721,137.844v-6.4h-148.804v6.4h5.177v296.185h-4.438v14.747c-.008.288-.27,7.054-6.739,7.054h-.219v2.301h7.764v6.139h5v184.663h135.716v-184.85h4.939v-5.952h7.825v-2.301h-.219c-6.47,0-6.731-6.766-6.737-7.048v-14.753h-4.44V137.844h5.177ZM225.308,131.881h148.025v5.525h-148.025v-5.525ZM379.502,456.265v1.428h-60.027c-.087-10.425-6.329-20.87-20.156-20.87s-20.069,10.445-20.156,20.87h-60.027v-1.428c6.685-.155,6.955-7.404,6.957-7.484v-14.315h146.452v14.321c.002.074.274,7.323,6.957,7.478ZM366.74,648.495h-134.84l-.002-184.219h134.842v184.219ZM371.677,463.646h-4.718l-135.279.186h-4.782v-5.701h52.702v-.219c0-10.279,6.097-20.651,19.719-20.651s19.719,10.372,19.719,20.651v.219h52.639v5.514ZM368.105,434.029h-137.572V137.844h137.572v296.185Z" fill="#414c3a" stroke-width="0"/>
        <path d="M352.087,213.149c0-28.888-23.501-52.389-52.389-52.389h-.757c-28.887,0-52.389,23.502-52.389,52.389v203.698h105.536v-203.698ZM351.65,416.41h-104.66v-203.261c0-28.646,23.305-51.951,51.95-51.951h.757c28.647,0,51.952,23.305,51.952,51.951v203.261Z" fill="#414c3a" stroke-width="0"/>
        <path d="M299.319,178.653c-19.928,0-36.142,16.214-36.142,36.143v189.94h72.286v-189.94c0-19.929-16.213-36.143-36.144-36.143ZM335.026,404.298h-71.412v-189.502c0-19.688,16.018-35.705,35.705-35.705s35.707,16.017,35.707,35.705v189.502Z" fill="#414c3a" stroke-width="0"/>
        <path d="M303.014,630.386h42.922v-143.542h-42.922v143.542ZM303.451,487.282h42.046v142.666h-42.046v-142.666Z" fill="#414c3a" stroke-width="0"/>
        <path d="M252.703,630.386h42.922v-143.542h-42.922v143.542ZM253.142,487.282h42.046v142.666h-42.046v-142.666Z" fill="#414c3a" stroke-width="0"/>
        <path d="M355.373,638.585l-.002-161.058h-112.106s.002,161.058.002,161.058h112.106ZM243.704,477.965h111.23s0,160.181,0,160.181h-111.23v-160.181Z" fill="#414c3a" stroke-width="0"/>
        <path d="M299.319,443.102c-4.512,0-8.185,3.672-8.185,8.185s3.673,8.185,8.185,8.185,8.185-3.672,8.185-8.185-3.673-8.185-8.185-8.185ZM299.319,459.034c-4.271,0-7.746-3.475-7.746-7.747s3.475-7.747,7.746-7.747,7.746,3.475,7.746,7.747-3.475,7.747-7.746,7.747Z" fill="#414c3a" stroke-width="0"/>
        <path d="M230.65,30.57l-.258-.046v64.468h103.746l-.26-.35c-24.807-33.426-62.433-56.78-103.228-64.073ZM230.831,94.554V31.047c40.443,7.301,77.744,30.426,102.435,63.507h-102.435Z" fill="#414c3a" stroke-width="0"/>
        <path d="M223.691,21.815l-.904-.115v80.897h125.632l-.765-1.229c-27.03-43.391-73.373-73.131-123.962-79.553ZM347.631,102.16h-124.405V22.198l.411.052c50.46,6.406,96.682,36.07,123.644,79.351l.35.559Z" fill="#414c3a" stroke-width="0"/>
        <path d="M108.705,160.76h-.757c-28.887,0-52.387,23.502-52.387,52.389v203.698h105.534v-203.698c0-28.888-23.501-52.389-52.389-52.389ZM160.658,416.41H55.998v-203.261c0-28.646,23.305-51.951,51.95-51.951h.757c28.647,0,51.952,23.305,51.952,51.951v203.261Z" fill="#414c3a" stroke-width="0"/>
        <path d="M108.327,178.653c-19.928,0-36.142,16.214-36.142,36.143v189.94h72.286v-189.94c0-19.929-16.213-36.143-36.144-36.143ZM144.032,404.298h-71.41v-189.502c0-19.688,16.018-35.705,35.705-35.705s35.705,16.017,35.705,35.705v189.502Z" fill="#414c3a" stroke-width="0"/>
        <path d="M104.634,486.844h-42.922v143.542h42.922v-143.542ZM104.195,629.948h-42.046v-142.666h42.046v142.666Z" fill="#414c3a" stroke-width="0"/>
        <path d="M154.943,486.844h-42.922v143.542h42.922v-143.542ZM154.504,629.948h-42.044v-142.666h42.044v142.666Z" fill="#414c3a" stroke-width="0"/>
        <path d="M164.381,477.528H52.275s0,161.057,0,161.057h112.106v-161.057ZM163.942,638.147H52.712l.002-160.182h111.23s-.002,160.182-.002,160.182Z" fill="#414c3a" stroke-width="0"/>
        <path d="M181.992,448.782v-14.753h-4.44V137.844h5.177v-6.4H33.927v6.4h5.177v296.185h-4.44v14.747c-.008.288-.27,7.054-6.739,7.054h-.219v2.301h7.827v5.952h4.937v184.85h135.716l.002-184.663h5v-6.139h7.762v-2.301h-.217c-6.47,0-6.731-6.766-6.739-7.048ZM188.512,457.693h-60.029c-.087-10.425-6.329-20.87-20.156-20.87s-20.069,10.445-20.156,20.87H28.144v-1.428c6.685-.155,6.955-7.404,6.957-7.484v-14.315h146.454v14.321c0,.074.272,7.323,6.957,7.478v1.428ZM34.315,131.881h148.025v5.525H34.315v-5.525ZM39.541,137.844h137.572v296.185H39.541V137.844ZM175.748,648.495H40.908v-184.219h134.84v184.219ZM180.747,463.832h-4.78l-135.279-.186h-4.72v-5.514h52.639v-.219c0-10.279,6.097-20.651,19.719-20.651s19.719,10.372,19.719,20.651v.219h52.702v5.701Z" fill="#414c3a" stroke-width="0"/>
        <path d="M108.327,443.102c-4.512,0-8.183,3.672-8.183,8.185s3.671,8.185,8.183,8.185,8.185-3.672,8.185-8.185-3.671-8.185-8.185-8.185ZM108.327,459.034c-4.271,0-7.746-3.475-7.746-7.747s3.475-7.747,7.746-7.747,7.748,3.475,7.748,7.747-3.475,7.747-7.748,7.747Z" fill="#414c3a" stroke-width="0"/>
        <path d="M73.768,94.642l-.258.35h103.744V30.524l-.258.046c-40.793,7.293-78.419,30.647-103.228,64.073ZM176.817,94.554h-102.435c24.691-33.081,61.99-56.206,102.435-63.507v63.507Z" fill="#414c3a" stroke-width="0"/>
        <path d="M184.859,21.701l-.904.115c-50.589,6.422-96.93,36.162-123.96,79.553l-.767,1.229h125.632V21.701ZM184.422,102.16H60.017l.348-.559c26.962-43.281,73.186-72.945,123.644-79.351l.413-.052v79.962Z" fill="#414c3a" stroke-width="0"/>
        <path d="M395.035,685.446V191.211c0-51.074-19.89-99.092-56.006-135.207C302.966,19.941,255.035.062,204.043.005v-.005h-.439v.005c-50.992.057-98.923,19.936-134.987,55.999C32.501,92.119,12.613,140.137,12.613,191.211v494.38l-12.394.005h-.219v24.556l407.398-.154h.219v-24.557l-12.583.005ZM407.181,709.56l-406.744.154v-23.681l12.176-.005,190.99-.073h.439l190.992-.073,12.146-.005v23.681ZM13.05,191.211C13.05,86.089,98.509.553,203.604.438v685.081l-190.554.072V191.211ZM394.596,685.446l-190.554.072V.438c105.095.115,190.554,85.651,190.554,190.773v494.236Z" fill="#414c3a" stroke-width="0"/>
      </g>
    </g>
  </g>
</svg>